<mxfile host="app.diagrams.net" modified="2024-07-15T18:21:09.311Z" agent="Mozilla/5.0 (Windows NT 10.0; Win64; x64) AppleWebKit/537.36 (KHTML, like Gecko) Chrome/126.0.0.0 Safari/537.36" etag="hznRPkG9p6WxZZH0hwAs" version="24.6.5" type="github">
  <diagram name="Page-1" id="0zR22Y7nTx7iUjILP_Rb">
    <mxGraphModel dx="1434" dy="746" grid="1" gridSize="10" guides="1" tooltips="1" connect="1" arrows="1" fold="1" page="1" pageScale="1" pageWidth="827" pageHeight="1169" math="0" shadow="0">
      <root>
        <mxCell id="0" />
        <mxCell id="1" parent="0" />
        <mxCell id="H-9AspZyheYrNTmflSNT-3" value="" style="edgeStyle=orthogonalEdgeStyle;rounded=0;orthogonalLoop=1;jettySize=auto;html=1;" edge="1" parent="1" source="H-9AspZyheYrNTmflSNT-1" target="H-9AspZyheYrNTmflSNT-2">
          <mxGeometry relative="1" as="geometry" />
        </mxCell>
        <mxCell id="H-9AspZyheYrNTmflSNT-1" value="checkOrRegister" style="ellipse;whiteSpace=wrap;html=1;" vertex="1" parent="1">
          <mxGeometry x="200" y="400" width="120" height="80" as="geometry" />
        </mxCell>
        <mxCell id="H-9AspZyheYrNTmflSNT-5" value="" style="edgeStyle=orthogonalEdgeStyle;rounded=0;orthogonalLoop=1;jettySize=auto;html=1;" edge="1" parent="1" source="H-9AspZyheYrNTmflSNT-2" target="H-9AspZyheYrNTmflSNT-4">
          <mxGeometry relative="1" as="geometry" />
        </mxCell>
        <mxCell id="H-9AspZyheYrNTmflSNT-2" value="Vérifie que le compte existe et sinon en crée un." style="whiteSpace=wrap;html=1;" vertex="1" parent="1">
          <mxGeometry x="200" y="570" width="120" height="60" as="geometry" />
        </mxCell>
        <mxCell id="H-9AspZyheYrNTmflSNT-12" value="" style="edgeStyle=orthogonalEdgeStyle;rounded=0;orthogonalLoop=1;jettySize=auto;html=1;" edge="1" parent="1" source="H-9AspZyheYrNTmflSNT-4" target="H-9AspZyheYrNTmflSNT-11">
          <mxGeometry relative="1" as="geometry" />
        </mxCell>
        <mxCell id="H-9AspZyheYrNTmflSNT-4" value="Vérifie qu&#39;il y ai un order avec le status Pending, sinon en crée un" style="whiteSpace=wrap;html=1;" vertex="1" parent="1">
          <mxGeometry x="200" y="710" width="120" height="60" as="geometry" />
        </mxCell>
        <mxCell id="H-9AspZyheYrNTmflSNT-8" value="" style="edgeStyle=orthogonalEdgeStyle;rounded=0;orthogonalLoop=1;jettySize=auto;html=1;" edge="1" parent="1" source="H-9AspZyheYrNTmflSNT-6" target="H-9AspZyheYrNTmflSNT-7">
          <mxGeometry relative="1" as="geometry" />
        </mxCell>
        <mxCell id="H-9AspZyheYrNTmflSNT-6" value="+layout.server.ts" style="ellipse;whiteSpace=wrap;html=1;" vertex="1" parent="1">
          <mxGeometry x="40" y="240" width="120" height="80" as="geometry" />
        </mxCell>
        <mxCell id="H-9AspZyheYrNTmflSNT-10" value="" style="edgeStyle=orthogonalEdgeStyle;rounded=0;orthogonalLoop=1;jettySize=auto;html=1;entryX=0;entryY=0.5;entryDx=0;entryDy=0;" edge="1" parent="1" source="H-9AspZyheYrNTmflSNT-7" target="H-9AspZyheYrNTmflSNT-1">
          <mxGeometry relative="1" as="geometry" />
        </mxCell>
        <mxCell id="H-9AspZyheYrNTmflSNT-7" value="&lt;br&gt;&lt;div style=&quot;color: #d0b7ff;background-color: #11002e;font-family: Consolas, &#39;Courier New&#39;, monospace;font-weight: normal;font-size: 14px;line-height: 19px;white-space: pre;&quot;&gt;&lt;div&gt;&lt;span style=&quot;color: #ff52fc;&quot;&gt;getSession&lt;/span&gt;&lt;span style=&quot;color: #bdaff8;&quot;&gt;()&lt;/span&gt;&lt;/div&gt;&lt;/div&gt;&lt;div&gt;recupère le token&amp;nbsp;&lt;/div&gt;" style="whiteSpace=wrap;html=1;" vertex="1" parent="1">
          <mxGeometry x="40" y="410" width="120" height="60" as="geometry" />
        </mxCell>
        <mxCell id="H-9AspZyheYrNTmflSNT-11" value="&lt;div&gt;Order&lt;/div&gt;assigne les data dans le store du (panier)" style="whiteSpace=wrap;html=1;" vertex="1" parent="1">
          <mxGeometry x="200" y="850" width="120" height="60" as="geometry" />
        </mxCell>
        <mxCell id="H-9AspZyheYrNTmflSNT-15" value="" style="edgeStyle=orthogonalEdgeStyle;rounded=0;orthogonalLoop=1;jettySize=auto;html=1;" edge="1" parent="1" source="H-9AspZyheYrNTmflSNT-13" target="H-9AspZyheYrNTmflSNT-14">
          <mxGeometry relative="1" as="geometry" />
        </mxCell>
        <mxCell id="H-9AspZyheYrNTmflSNT-13" value="Checkout" style="ellipse;whiteSpace=wrap;html=1;" vertex="1" parent="1">
          <mxGeometry x="440" y="240" width="120" height="80" as="geometry" />
        </mxCell>
        <mxCell id="H-9AspZyheYrNTmflSNT-17" value="" style="edgeStyle=orthogonalEdgeStyle;rounded=0;orthogonalLoop=1;jettySize=auto;html=1;" edge="1" parent="1" source="H-9AspZyheYrNTmflSNT-14" target="H-9AspZyheYrNTmflSNT-16">
          <mxGeometry relative="1" as="geometry" />
        </mxCell>
        <mxCell id="H-9AspZyheYrNTmflSNT-14" value="envoie le orderId et addressId associé" style="whiteSpace=wrap;html=1;" vertex="1" parent="1">
          <mxGeometry x="440" y="410" width="120" height="60" as="geometry" />
        </mxCell>
        <mxCell id="H-9AspZyheYrNTmflSNT-19" value="" style="edgeStyle=orthogonalEdgeStyle;rounded=0;orthogonalLoop=1;jettySize=auto;html=1;" edge="1" parent="1" source="H-9AspZyheYrNTmflSNT-16" target="H-9AspZyheYrNTmflSNT-18">
          <mxGeometry relative="1" as="geometry" />
        </mxCell>
        <mxCell id="H-9AspZyheYrNTmflSNT-16" value="get l&#39;order par id" style="whiteSpace=wrap;html=1;" vertex="1" parent="1">
          <mxGeometry x="440" y="550" width="120" height="60" as="geometry" />
        </mxCell>
        <mxCell id="H-9AspZyheYrNTmflSNT-18" value="ajoute l&#39;adressId dans Order" style="whiteSpace=wrap;html=1;" vertex="1" parent="1">
          <mxGeometry x="440" y="690" width="120" height="60" as="geometry" />
        </mxCell>
      </root>
    </mxGraphModel>
  </diagram>
</mxfile>
